# xmcd
#
# Track frame offsets:
#	182
#	29260
#	56635
#	84547
#	112787
#	134307
#	153682
#	175325
#	193327
#	221765
#	243527
#	263975
#	286015
#
# Disc length: 4155
#
# Revision: 1
# Processed by: cddbd v1.5.1PL0 Copyright (c) Steve Scherf et al.
# Submitted via: CDex 1.51
# Normalized: r0:TDELIM( - )
#
DISCID=be10390d
DTITLE=GRP - The collection
DYEAR=1900
DGENRE=Jazz
TTITLE0=BRECKER BROTHERS - On the backside
TTITLE1=NELSON RANGELL - Livin' the life
TTITLE2=ROBBEN FORD and THE BLUE LINE - Tel me I'm your man
TTITLE3=LARRY CARLTON - Oui oui si
TTITLE4=LEE RITENOUR - Boss city
TTITLE5=PHILLIP BENT - Freedom jazz dance
TTITLE6=RAMSEY LEWIS - Jackson park
TTITLE7=KIM PENSYL - Eyes of wonder
TTITLE8=YELLOWJACKETS - Memoirs
TTITLE9=PATTI AUSTIN - Love is gonna getcha
TTITLE10=DAVE SAMUELS - Del sol
TTITLE11=ACOUSTIC ALCHEMY - Until always
TTITLE12=GARY BURTON - Something special
EXTD=
EXTT0=
EXTT1=
EXTT2=
EXTT3=
EXTT4=
EXTT5=
EXTT6=
EXTT7=
EXTT8=
EXTT9=
EXTT10=
EXTT11=
EXTT12=
PLAYORDER=
